<svg xmlns="http://www.w3.org/2000/svg" viewBox="0 0 1122 1122"><defs><style>.cls-1{fill:#fff;}.cls-2{fill:none;}.cls-3{fill:#616e7d;}.cls-4{fill:#aad4c8;}</style></defs><g id="Bg"><rect class="cls-1" width="1122" height="1122"/></g><g id="Object"><path class="cls-2" d="M740.0291,502.8578V490.2543c0-7.3958-5.2894-13.4692-12.3885-15.3272-.6116,2.2819-1.3373,4.5154-2.0457,6.7514a142.29751,142.29751,0,0,1,1.3374,18.2077,152.70737,152.70737,0,0,1-1.2711,18.8491C733.7592,517.6006,740.0291,510.9614,740.0291,502.8578Z"/><path class="cls-2" d="M691.6733,459.1767c-57.4341-4.2334-215.1023-41.1811-215.1023-41.1811-9.5501,16.9639-34.5029,38.5212-53.9724,52.3536-.7139,3.0348-1.3857,6.0579-1.8759,9.1596a121.17022,121.17022,0,0,0-.8961,35.0415,128.53131,128.53131,0,0,0,5.0235,23.978c17.3692,56.5386,71.7952,97.9403,136.153,97.9403s118.7596-41.4172,136.1412-97.9521a129.81866,129.81866,0,0,0,5.0353-23.9842,131.35464,131.35464,0,0,0-5.8044-55.153C694.8804,459.3676,693.3193,459.3013,691.6733,459.1767Z"/><path class="cls-1" d="M581.0173,704.5547l19.7056,129.4234h23.603l36.6633-192.507c-3.6068-.2696-7.1901-.5361-10.8577-.5361H638.312a170.60824,170.60824,0,0,1-154.6116,0H471.8802c-3.6855,0-7.2682.2665-10.857.5361l36.6632,192.507h23.5851l19.7056-129.4234h.6898l-19.3424-35.5316H599.67l-19.3425,35.5316Z"/><path class="cls-3" d="M660.9892,641.4711l-36.6633,192.507H497.6864l-36.6632-192.507c-74.8579,5.5708-133.9021,67.9132-133.9021,144.2145v70.2433H794.8789V785.6856A144.65388,144.65388,0,0,0,660.9892,641.4711Z"/><polygon class="cls-4" points="521.272 833.978 600.723 833.978 581.017 704.555 580.327 704.555 599.67 669.023 522.325 669.023 541.667 704.555 540.977 704.555 521.272 833.978"/><path class="cls-3" d="M358.0654,490.2543v12.6035c0,21.5753,18.235,39.1019,40.6457,39.1019h2.3903c12.2254,42.8637,42.5823,78.5496,82.599,98.9753a170.60824,170.60824,0,0,0,154.6116,0c40.016-20.4257,70.355-56.1116,82.5804-98.9753h2.3903c22.4113,0,40.6457-17.5266,40.6457-39.1019V490.2543c0-18.6799-13.7196-34.2575-31.9726-38.1128a150.18835,150.18835,0,0,0,1.0833-17.1033l-.0787-1.6343a101.584,101.584,0,0,0-.66-13.0149v-.0149A154.39953,154.39953,0,0,0,582.47,280.8956l-1.8884-1.4954a5.97484,5.97484,0,0,0-4.563-2.0785c-2.8025,0-4.7695,1.8579-6.361,3.3831h-.5143c-9.0301-9.0481-15.8205-14.6337-21.6423-14.6337h-.0303c-5.5497.4263-31.5797,9.6647-39.889,15.9103-1.8518,1.3863-3.9161,3.1625-6.1006,5.1295A154.30314,154.30314,0,0,0,390.9223,435.0382c0,1.0715.0787,2.1244.0967,3.1773a121.92014,121.92014,0,0,0,.5144,13.926C372.5845,455.4335,358.0654,471.0904,358.0654,490.2543Zm369.5752-15.3272c7.0991,1.858,12.3885,7.9314,12.3885,15.3272v12.6035c0,8.1036-6.2699,14.7428-14.3679,15.8775a152.70737,152.70737,0,0,0,1.2711-18.8491,142.29751,142.29751,0,0,0-1.3374-18.2077C726.3033,479.4425,727.029,477.209,727.6406,474.9271Zm-306.9179,4.5817c.4902-3.1017,1.162-6.1248,1.8759-9.1596,19.4695-13.8324,44.4223-35.3897,53.9724-52.3536,0,0,157.6682,36.9477,215.1023,41.1811,1.646.1246,3.2071.1909,4.7019.2026a132.6747,132.6747,0,0,1,4.8965,20.1295,128.17016,128.17016,0,0,1-4.1274,59.0077c-17.3816,56.5349-71.7834,97.9521-136.1412,97.9521s-118.7838-41.4017-136.153-97.9403a132.90834,132.90834,0,0,1-5.8887-38.6421A130.1542,130.1542,0,0,1,420.7227,479.5088Zm-38.7573,10.7455c0-7.9617,6.0882-14.4434,14.004-15.7021.0484,3.0683.1574,6.0882.2237,9.1565a130.95657,130.95657,0,0,0-1.1316,16.1775,151.62629,151.62629,0,0,0,1.2593,18.8491c-8.0918-1.1347-14.3554-7.7739-14.3554-15.8775Z"/></g></svg>